<?xml version="1.0" standalone="no"?>
<!DOCTYPE svg PUBLIC "-//W3C//DTD SVG 20010904//EN"
 "http://www.w3.org/TR/2001/REC-SVG-20010904/DTD/svg10.dtd">
<svg version="1.0" xmlns="http://www.w3.org/2000/svg"
 width="512.000000pt" height="513.000000pt" viewBox="0 0 512.000000 513.000000"
 preserveAspectRatio="xMidYMid meet">

<g transform="translate(0.000000,513.000000) scale(0.100000,-0.100000)"
fill="#000000" stroke="none">
<path d="M1785 3070 c-4 -11 -5 -42 -4 -68 l3 -47 -44 -5 -45 -5 -3 -67 -3
-67 43 -3 43 -3 2 -150 c4 -210 -3 -196 91 -193 l77 3 5 170 5 170 40 3 c48 4
55 13 55 73 0 55 -13 69 -62 69 l-37 0 -3 68 -3 67 -77 3 c-70 3 -77 1 -83
-18z"/>
<path d="M405 2940 c-47 -24 -45 -24 -45 -5 0 13 -13 15 -77 13 l-78 -3 -3
-242 -2 -243 80 0 80 0 0 118 c1 134 11 197 34 220 10 10 40 19 74 22 l57 5 3
68 3 67 -43 0 c-24 0 -61 -9 -83 -20z"/>
<path d="M729 2947 c-126 -47 -186 -182 -148 -332 15 -61 77 -129 137 -152 89
-34 261 -14 307 37 20 22 15 52 -14 89 l-19 25 -57 -22 c-81 -31 -129 -29
-166 7 -56 56 -47 60 134 63 l162 3 -1 61 c-1 83 -42 157 -109 199 -40 25 -60
30 -119 32 -42 2 -86 -2 -107 -10z m151 -139 c37 -40 27 -48 -60 -48 -87 0
-96 7 -58 47 29 31 89 32 118 1z"/>
<path d="M1353 2943 c-18 -9 -33 -20 -33 -25 0 -17 -18 -7 -23 12 -5 19 -12
21 -79 18 l-73 -3 -3 -242 -2 -243 80 0 80 0 0 145 c0 183 13 215 85 215 12 0
33 -9 46 -19 23 -19 24 -25 27 -180 l4 -161 79 0 79 0 1 48 c6 304 -9 383 -86
427 -50 30 -132 33 -182 8z"/>
<path d="M2360 2949 c-13 -5 -32 -17 -41 -25 -16 -14 -18 -14 -29 6 -10 19
-18 21 -83 18 l-72 -3 -3 -242 -2 -243 79 0 79 0 3 149 c4 133 6 153 25 178
28 37 82 43 110 12 17 -18 20 -41 24 -178 l5 -156 80 0 80 0 0 175 c0 167 -1
177 -25 224 -35 69 -66 89 -143 93 -34 2 -73 -2 -87 -8z"/>
<path d="M2876 2950 c-15 -5 -45 -21 -66 -35 -135 -93 -145 -295 -22 -407 51
-46 101 -63 187 -62 82 1 128 18 183 68 59 53 86 123 80 207 -8 108 -69 190
-165 225 -42 15 -153 17 -197 4z m160 -164 c28 -28 34 -42 34 -75 0 -76 -37
-121 -100 -121 -42 0 -67 15 -86 52 -25 48 -14 115 25 150 44 39 84 37 127 -6z"/>
<path d="M3290 2936 c0 -19 230 -480 243 -488 17 -10 37 14 105 125 l60 98 19
-28 c11 -15 37 -57 58 -93 53 -91 74 -113 93 -98 8 7 62 107 119 223 58 115
108 211 111 212 4 2 57 -97 117 -220 69 -138 116 -222 125 -222 8 0 45 50 82
110 38 61 72 109 76 107 4 -2 36 -51 72 -110 36 -59 72 -107 80 -107 17 0 264
480 255 495 -7 12 -144 13 -161 2 -6 -4 -32 -49 -58 -100 -26 -51 -50 -90 -55
-88 -4 3 -34 48 -65 101 -31 52 -61 95 -65 95 -13 0 -34 -29 -87 -117 -27 -45
-51 -83 -54 -83 -3 0 -28 44 -56 98 l-52 97 -153 0 -154 0 -50 -97 c-27 -54
-53 -98 -57 -98 -3 0 -26 35 -51 78 -55 94 -81 127 -94 119 -6 -4 -36 -49 -67
-102 -31 -52 -59 -95 -61 -95 -3 0 -19 28 -36 62 -17 34 -42 79 -55 100 l-24
38 -80 0 c-61 0 -80 -3 -80 -14z"/>
<path d="M2130 2235 l0 -105 1385 0 1385 0 0 105 0 105 -1385 0 -1385 0 0
-105z"/>
</g>
</svg>
